<svg width="159" height="67" viewBox="0 0 159 67" fill="none" xmlns="http://www.w3.org/2000/svg">
<path d="M48.0019 4.27411C47.5994 4.62066 47.8006 5.66031 48.3038 6.46893C49.1089 7.39307 49.0082 7.73962 48.1025 7.62411C47.3981 7.62411 46.7943 7.97066 46.7943 8.66376C46.7943 9.24135 47.7 9.5879 48.807 9.47238C51.1215 9.12583 55.3481 13.0534 55.3481 15.5948C55.3481 17.6741 51.826 18.7138 46.6937 18.2517C42.9703 17.9051 42.769 17.6741 42.8696 14.2086C42.8696 12.1293 42.5677 10.7431 42.0646 11.0896C41.662 11.4362 41.4608 12.2448 41.7627 12.8224C42.1652 13.4 41.9639 13.862 41.3601 13.862C40.7563 13.862 40.5551 14.6707 40.857 15.5948C41.662 17.9051 40.3538 17.7896 36.731 15.0172C34.7184 13.4 32.0013 12.7069 28.3785 12.7069C22.4411 12.7069 20.026 13.7465 15.6987 18.3672C13.1829 21.0241 12.9817 21.0241 13.8873 18.9448C15.6987 14.9017 20.9317 10.512 24.8563 9.70342C28.2779 9.01031 32.907 9.81893 37.5361 12.1293C38.5424 12.5913 39.2468 12.4758 39.2468 11.7827C39.2468 11.0896 37.2342 9.70342 34.7184 8.54824C28.9823 6.12238 23.3468 6.931 18.0133 10.8586C14.2899 13.7465 10.0633 21.0241 10.0633 24.7207C10.0633 25.6448 9.1576 26.6845 8.15127 27.1465C7.14494 27.4931 5.73608 29.3413 5.03165 31.3051C3.32089 35.9258 4.93102 39.9689 9.35887 42.1638C11.0696 43.0879 14.0886 45.6293 16.0006 47.9396C17.9127 50.1344 19.9253 51.9827 20.5291 52.0982C21.1329 52.0982 18.8184 53.1379 15.2962 54.4086C11.8747 55.6793 9.05697 57.2965 9.05697 57.8741C9.05697 58.6827 10.0633 58.7982 11.7741 58.3362C19.9253 55.9103 21.1329 55.6793 21.1329 57.181C21.1329 57.9896 22.0386 59.9534 23.2462 61.6862C26.7684 66.7689 33.0076 65.2672 34.7184 58.7982C35.4228 56.2569 35.926 56.2569 44.5804 58.4517C49.9139 59.8379 47.2975 56.6034 41.4608 54.6396L35.6241 52.6758L40.1525 47.7086C42.5677 44.9362 44.9829 42.7413 45.2848 42.7413C47.5994 42.7413 51.3228 37.6586 51.3228 34.5396C51.3228 31.3051 48.3038 26.5689 46.1905 26.5689C45.6873 26.5689 45.4861 25.9913 45.788 25.4138C46.0899 24.7207 48.0019 24.2586 49.9139 24.2586C57.8639 24.2586 61.2854 13.5155 55.4487 6.81549C52.4298 3.46549 49.5114 2.1948 50.9203 4.85169C51.5241 6.00687 51.4234 6.00687 50.1152 4.96721C49.3101 4.15859 48.3038 3.81204 48.0019 4.27411ZM34.2152 16.75C37.838 18.9448 41.2595 23.912 40.5551 26.1069C40.2532 27.031 40.5551 27.7241 41.1589 27.7241C42.3665 27.7241 42.4671 36.9655 41.3601 36.9655C40.9576 36.9655 39.9513 39.0448 38.8443 41.4707C37.838 44.012 36.1272 46.3224 35.0203 46.5534C33.712 47.0155 33.3095 47.7086 33.8127 48.6327C34.2152 49.5569 34.1146 49.7879 33.3095 49.2103C32.7057 48.7482 31.4981 48.9793 30.5924 49.6724C28.781 51.4051 22.8437 50.481 19.4222 47.9396C12.9817 43.0879 10.969 30.4965 15.3968 23.1034C19.6234 15.8258 27.976 13.0534 34.2152 16.75ZM9.05697 34.1931C9.05697 36.6189 8.65444 38.0051 8.05064 37.5431C6.33988 36.3879 6.94368 30.0345 8.75507 30.0345C8.95634 30.0345 9.05697 31.8827 9.05697 34.1931ZM48.5051 36.2724C47.5994 38.3517 47.3981 38.1207 47.3981 34.0776C47.3981 30.2655 47.4987 29.8034 48.4044 31.6517C49.2095 33.0379 49.2095 34.5396 48.5051 36.2724ZM29.7873 56.6034C31.0956 56.6034 32.2025 57.2965 32.2025 58.1051C32.2025 59.7224 24.8563 60.0689 23.5481 58.6827C22.4411 57.412 24.2525 55.2172 25.8627 55.9103C26.6677 56.2569 28.4791 56.6034 29.7873 56.6034Z" fill="black"/>
<path d="M25.1582 21.3707C26.4664 22.9879 27.7747 24.2586 28.0765 24.2586C29.3848 24.1431 33.4101 19.5224 32.9069 18.8293C32.5044 18.4827 31.2968 19.4069 30.1898 20.9086L28.1772 23.681L26.2652 21.0241C25.1582 19.6379 23.9506 18.4827 23.5481 18.4827C23.1455 18.4827 23.85 19.7534 25.1582 21.3707Z" fill="black"/>
<path d="M32.5044 23.7965C29.5861 27.3775 29.5861 27.7241 32.605 27.7241C34.0139 27.7241 35.4228 28.1861 35.7247 28.8793C36.0266 29.4568 37.0329 30.0344 37.838 30.0344C39.75 30.0344 39.1462 27.1465 37.1335 27.031C31.3974 26.5689 31.4981 26.6844 34.0139 24.3741C35.2215 23.1034 36.2278 21.8327 36.2278 21.4861C36.2278 20.0999 34.7183 21.1396 32.5044 23.7965Z" fill="black"/>
<path d="M24.4538 25.9913C24.4538 26.9155 24.8563 27.3775 25.3595 27.031C25.8627 26.6844 25.9633 25.8758 25.6614 25.2982C24.7557 23.7965 24.4538 24.0275 24.4538 25.9913Z" fill="black"/>
<path d="M19.4222 27.3775C18.1139 27.6086 17.1076 28.4172 17.1076 28.9948C17.1076 30.381 18.1139 30.2655 21.1329 28.3017C23.6487 26.5689 23.4475 26.4534 19.4222 27.3775Z" fill="black"/>
<path d="M26.6677 28.8793C26.2652 29.5724 25.5608 29.8034 25.0576 29.4569C24.5544 28.9948 24.1519 29.3414 24.1519 29.919C24.1519 31.5362 25.8627 31.5362 26.6677 30.0345C27.0703 29.2259 27.8753 29.2259 29.1836 30.0345C31.5988 31.5362 32.2026 31.5362 32.2026 29.919C32.2026 29.3414 31.8 28.9948 31.2969 29.4569C30.7937 29.8034 30.0893 29.5724 29.6867 28.8793C29.3848 28.3017 28.6804 27.7241 28.1772 27.7241C27.6741 27.7241 26.9696 28.3017 26.6677 28.8793Z" fill="black"/>
<path d="M20.4285 34.1931C19.6234 36.619 21.7367 39.0448 23.2462 37.3121C24.5544 35.8104 23.7494 32.3448 22.1392 32.3448C21.5354 32.3448 20.831 33.1535 20.4285 34.1931Z" fill="black"/>
<path d="M32.5044 34.1931C31.6993 36.619 33.8126 39.0448 35.3221 37.3121C36.6304 35.8104 35.8253 32.3448 34.2152 32.3448C33.6114 32.3448 32.9069 33.1535 32.5044 34.1931Z" fill="black"/>
<path d="M27.1709 35.8103C27.1709 36.3879 27.6741 36.9655 28.1772 36.9655C28.781 36.9655 29.1836 36.3879 29.1836 35.8103C29.1836 35.1172 28.781 34.6551 28.1772 34.6551C27.6741 34.6551 27.1709 35.1172 27.1709 35.8103Z" fill="black"/>
<path d="M25.6614 43.8965C25.9633 44.474 27.1709 45.0516 28.1772 45.0516C29.1835 45.0516 30.3911 44.474 30.693 43.8965C31.0956 43.2034 29.9886 42.7413 28.1772 42.7413C26.3658 42.7413 25.2589 43.2034 25.6614 43.8965Z" fill="black"/>
<path d="M11.5728 10.3965C11.2709 10.9741 11.4721 11.5517 11.9753 11.5517C12.5791 11.5517 13.0822 10.9741 13.0822 10.3965C13.0822 9.70342 12.881 9.24135 12.6797 9.24135C12.3778 9.24135 11.8747 9.70342 11.5728 10.3965Z" fill="black"/>
<path d="M6.13857 20.1C5.23288 21.2551 5.23288 21.9482 6.03794 22.5258C7.7487 23.681 9.76136 21.1396 8.45313 19.6379C7.64807 18.7137 6.94364 18.9448 6.13857 20.1Z" fill="black"/>
<path d="M132.835 27.1465C132.835 28.0706 132.131 28.8792 131.326 28.8792C130.521 28.8792 129.414 29.8034 128.911 30.9586C127.502 33.962 129.414 36.9655 132.332 36.7344C134.647 36.5034 134.848 35.9258 134.848 30.9586C134.848 27.9551 134.446 25.4137 133.842 25.4137C133.339 25.4137 132.835 26.2224 132.835 27.1465ZM132.835 32.9224C132.835 33.8465 132.433 34.6551 131.93 34.6551C130.622 34.6551 129.716 32.8068 130.521 31.8827C131.628 30.612 132.835 31.1896 132.835 32.9224Z" fill="black"/>
<path d="M140.886 27.031C140.886 27.8396 139.98 28.8793 138.773 29.2258C137.163 29.6879 136.76 30.612 137.062 33.1534C137.263 35.8103 137.867 36.3879 140.182 36.5034C142.798 36.6189 142.899 36.3879 142.899 31.0741C142.899 27.9551 142.496 25.4138 141.892 25.4138C141.389 25.4138 140.886 26.1069 140.886 27.031ZM140.886 32.9224C140.886 33.8465 140.484 34.6551 139.88 34.6551C139.377 34.6551 138.873 33.8465 138.873 32.9224C138.873 31.9983 139.377 31.1896 139.88 31.1896C140.484 31.1896 140.886 31.9983 140.886 32.9224Z" fill="black"/>
<path d="M67.6253 31.4207C67.9272 36.0414 68.1285 36.388 71.2481 36.7345C73.0595 36.9655 74.4684 36.619 74.4684 35.9259C74.4684 35.2328 73.3614 34.6552 71.9525 34.6552C69.7386 34.6552 69.4367 34.1931 69.4367 30.6121C69.4367 28.4173 68.9336 26.569 68.3298 26.569C67.726 26.569 67.4241 28.5328 67.6253 31.4207Z" fill="black"/>
<path d="M111.703 31.6517C111.703 36.3879 111.904 36.9655 114.017 36.9655C117.539 36.9655 118.546 35.5792 118.344 31.1896C118.244 27.493 117.841 27.1465 114.923 26.7999C111.703 26.4534 111.703 26.4534 111.703 31.6517ZM116.432 29.5724C116.13 29.9189 115.225 30.0344 114.52 29.6879C113.715 29.3413 114.017 28.9948 115.124 28.9948C116.231 28.8792 116.835 29.2258 116.432 29.5724ZM116.734 33.4999C116.734 34.0775 116.03 34.6551 115.225 34.6551C114.42 34.6551 113.715 34.0775 113.715 33.4999C113.715 32.8068 114.42 32.3448 115.225 32.3448C116.03 32.3448 116.734 32.8068 116.734 33.4999Z" fill="black"/>
<path d="M52.8323 28.8793C52.5304 29.4568 52.9329 30.0344 53.8386 30.0344C54.7443 30.0344 55.1468 29.4568 54.8449 28.8793C54.543 28.1861 54.0399 27.7241 53.8386 27.7241C53.6373 27.7241 53.1342 28.1861 52.8323 28.8793Z" fill="black"/>
<path d="M76.5817 30.9586C75.4747 33.3844 76.8836 36.9655 78.9968 36.9655C81.2108 36.9655 82.9215 32.5758 81.412 30.4965C79.8019 28.3017 77.7893 28.4172 76.5817 30.9586Z" fill="black"/>
<path d="M85.2361 29.6879C84.0285 31.0741 84.5316 35.5792 85.9405 36.1568C89.0601 37.543 91.0728 36.2723 91.0728 32.9223C91.0728 30.2654 90.5696 29.5723 88.4563 29.2258C87.0475 28.9947 85.538 29.2258 85.2361 29.6879ZM88.5569 32.9223C88.5569 33.8465 88.1544 34.6551 87.5506 34.6551C87.0475 34.6551 86.5443 33.8465 86.5443 32.9223C86.5443 31.9982 87.0475 31.1896 87.5506 31.1896C88.1544 31.1896 88.5569 31.9982 88.5569 32.9223Z" fill="black"/>
<path d="M93.5886 33.2689C93.5886 35.4638 93.9912 36.85 94.595 36.3879C95.1987 36.0413 95.6013 34.6551 95.6013 33.3845C95.6013 32.2293 96.1044 31.1896 96.6076 31.1896C97.2114 31.1896 97.6139 30.7276 97.6139 30.15C97.6139 29.4569 96.7082 29.1103 95.6013 29.2258C93.9912 29.3413 93.5886 30.15 93.5886 33.2689Z" fill="black"/>
<path d="M99.6266 32.8068C99.6266 35.1172 100.13 36.9655 100.633 36.9655C101.237 36.9655 101.639 35.6948 101.639 34.0775C101.639 32.4603 102.142 31.1896 102.646 31.1896C103.249 31.1896 103.652 32.2292 103.652 33.3844C103.652 34.6551 104.155 36.0413 104.759 36.3879C105.463 36.9655 105.665 35.8103 105.463 33.3844C105.262 30.0344 104.759 29.3413 102.444 29.1103C99.8279 28.7637 99.6266 28.9948 99.6266 32.8068Z" fill="black"/>
<path d="M120.76 32.1137C120.76 35.6947 122.672 37.4275 125.288 36.2723C126.999 35.4637 127.401 28.8792 125.791 28.8792C125.288 28.8792 124.785 30.1499 124.785 31.7672C124.785 33.3844 124.382 34.6551 123.779 34.6551C123.275 34.6551 122.772 33.6154 122.772 32.4603C122.772 31.1896 122.37 29.8034 121.766 29.4568C121.162 28.9947 120.76 30.1499 120.76 32.1137Z" fill="black"/>
<path d="M145.415 31.1896C145.817 32.8069 146.119 35.4638 146.119 37.1965C146.018 41.5862 146.522 41.2396 148.937 35.8103C151.251 30.4965 151.553 27.262 149.44 30.4965C147.93 32.8069 147.93 32.8069 146.32 30.4965C144.811 28.4172 144.811 28.4172 145.415 31.1896Z" fill="black"/>
<path d="M49.9139 49.0948C49.3101 51.0586 50.4171 52.0983 52.0272 51.0586C52.8323 50.4811 52.7317 49.7879 51.826 48.8638C50.8196 47.7086 50.4171 47.8242 49.9139 49.0948Z" fill="black"/>
<path d="M3.01898 49.6723C3.01898 50.2499 3.52215 50.8275 4.02531 50.8275C4.62911 50.8275 5.03164 50.2499 5.03164 49.6723C5.03164 48.9792 4.62911 48.5172 4.02531 48.5172C3.52215 48.5172 3.01898 48.9792 3.01898 49.6723Z" fill="black"/>
</svg>
